<?xml version="1.0" encoding="utf-8"?>
<!DOCTYPE svg PUBLIC "-//W3C//DTD SVG 1.1//EN" "http://www.w3.org/Graphics/SVG/1.1/DTD/svg11.dtd">
<svg version="1.1" id="Layer_1" xmlns="http://www.w3.org/2000/svg" xmlns:xlink="http://www.w3.org/1999/xlink" x="0px" y="0px"
	 width="612px" height="792px" viewBox="0 0 612 792" enable-background="new 0 0 612 792" xml:space="preserve">
<path fill="#ffffff" fill-rule="nonzero" clip-rule="evenodd" stroke="#ffffff" stroke-width="2.9999" stroke-linecap="round" stroke-linejoin="round" stroke-miterlimit="22.9256" d="
	M153.333,720.076c15.381-10.12,38.049-16.597,59.502-33.192c21.454-16.596,41.693-43.312,52.217-73.266
	c10.524-29.953,11.334-63.146,0.405-102.005c-10.929-38.858-33.597-83.385-49.788-125.482
	c-16.191-42.097-25.906-81.765-31.168-122.243c-5.262-40.479-6.071-81.767,10.524-121.435
	c16.596-39.669,50.598-77.718,95.629-94.921c45.032-17.203,101.095-13.561,136.311,5.87c35.216,19.429,49.586,54.645,52.723,77.919
	s-4.959,34.609-16.495,39.466c-11.536,4.858-26.513,3.239-41.489-6.476c-14.977-9.715-29.954-27.526-47.968-36.937
	c-18.012-9.411-39.061-10.423-58.49-3.542c-19.429,6.881-37.24,21.656-49.788,42.4c-12.548,20.745-19.834,47.461-13.763,87.939
	c6.072,40.478,25.501,94.718,42.097,143.291c16.596,48.574,30.359,91.481,34.811,131.555c4.453,40.073-0.404,77.313-14.167,111.314
	s-36.43,64.765-62.336,83.789c-25.906,19.025-55.05,26.312-77.313,29.954c-22.263,3.644-37.645,3.644-41.288-3.238
	C129.855,743.958,137.951,730.195,153.333,720.076z"/>
</svg>
